HIERARCHY
ROOT Root
{
	OFFSET 0.00 0.00 0.00
	CHANNELS 6 Xposition Yposition Zposition Xrotation Yrotation Zrotation
	End Site
	{
		OFFSET 11.15845 33.36195 0.00000
	}
	End Site
	{
		OFFSET -24.46944 8.18421 0.00000
	}
	End Site
	{
		OFFSET 0.00000 0.00000 10.63045
	}
}
MOTION
Frames: 220
Frame Time: 0.008342
 11.6193 -85.3990 34.4335 -8.1881 -1.5401 14.0052
 11.5682 -85.5985 34.4361 -8.2022 -1.6001 14.0220
 11.5182 -85.7973 34.4395 -8.2158 -1.6592 14.0405
 11.4695 -85.9953 34.4437 -8.2287 -1.7169 14.0608
 11.4223 -86.1922 34.4486 -8.2408 -1.7728 14.0828
 11.3767 -86.3882 34.4539 -8.2518 -1.8266 14.1062
 11.3327 -86.5832 34.4597 -8.2611 -1.8779 14.1309
 11.2903 -86.7773 34.4659 -8.2682 -1.9264 14.1565
 11.2496 -86.9707 34.4722 -8.2727 -1.9718 14.1827
 11.2105 -87.1633 34.4786 -8.2739 -2.0139 14.2094
 11.1728 -87.3554 34.4851 -8.2715 -2.0526 14.2364
 11.1366 -87.5471 34.4915 -8.2650 -2.0878 14.2636
 11.1016 -87.7385 34.4976 -8.2545 -2.1199 14.2913
 11.0678 -87.9298 34.5036 -8.2400 -2.1489 14.3195
 11.0350 -88.1210 34.5092 -8.2218 -2.1753 14.3486
 11.0032 -88.3120 34.5146 -8.2006 -2.1996 14.3789
 10.9720 -88.5030 34.5195 -8.1770 -2.2223 14.4106
 10.9414 -88.6939 34.5241 -8.1519 -2.2439 14.4440
 10.9111 -88.8847 34.5283 -8.1263 -2.2649 14.4790
 10.8809 -89.0753 34.5321 -8.1011 -2.2859 14.5156
 10.8507 -89.2656 34.5355 -8.0770 -2.3073 14.5534
 10.8201 -89.4557 34.5385 -8.0548 -2.3292 14.5919
 10.7890 -89.6455 34.5410 -8.0346 -2.3519 14.6306
 10.7571 -89.8349 34.5430 -8.0167 -2.3753 14.6687
 10.7243 -90.0240 34.5442 -8.0006 -2.3995 14.7053
 10.6903 -90.2127 34.5446 -7.9859 -2.4240 14.7399
 10.6551 -90.4009 34.5439 -7.9717 -2.4487 14.7717
 10.6186 -90.5886 34.5419 -7.9570 -2.4732 14.8003
 10.5807 -90.7756 34.5383 -7.9408 -2.4969 14.8253
 10.5416 -90.9619 34.5330 -7.9222 -2.5195 14.8467
 10.5013 -91.1475 34.5257 -7.9002 -2.5404 14.8645
 10.4599 -91.3322 34.5162 -7.8741 -2.5591 14.8791
 10.4175 -91.5159 34.5044 -7.8437 -2.5751 14.8908
 10.3742 -91.6988 34.4904 -7.8090 -2.5881 14.8999
 10.3302 -91.8808 34.4742 -7.7704 -2.5975 14.9069
 10.2855 -92.0620 34.4559 -7.7287 -2.6032 14.9121
 10.2402 -92.2427 34.4357 -7.6849 -2.6048 14.9156
 10.1945 -92.4228 34.4140 -7.6404 -2.6022 14.9176
 10.1483 -92.6028 34.3911 -7.5965 -2.5952 14.9178
 10.1015 -92.7829 34.3673 -7.5548 -2.5839 14.9161
 10.0542 -92.9632 34.3431 -7.5166 -2.5683 14.9121
 10.0062 -93.1442 34.3187 -7.4832 -2.5485 14.9055
 9.9576 -93.3259 34.2944 -7.4557 -2.5246 14.8960
 9.9081 -93.5085 34.2705 -7.4348 -2.4966 14.8832
 9.8577 -93.6922 34.2469 -7.4210 -2.4647 14.8669
 9.8062 -93.8769 34.2237 -7.4143 -2.4288 14.8470
 9.7535 -94.0625 34.2009 -7.4148 -2.3891 14.8235
 9.6996 -94.2491 34.1784 -7.4218 -2.3455 14.7964
 9.6443 -94.4364 34.1559 -7.4350 -2.2980 14.7659
 9.5875 -94.6243 34.1333 -7.4534 -2.2466 14.7320
 9.5291 -94.8127 34.1105 -7.4762 -2.1913 14.6949
 9.4692 -95.0015 34.0873 -7.5025 -2.1323 14.6546
 9.4076 -95.1906 34.0637 -7.5314 -2.0698 14.6110
 9.3444 -95.3800 34.0397 -7.5621 -2.0042 14.5640
 9.2796 -95.5697 34.0153 -7.5937 -1.9358 14.5134
 9.2132 -95.7599 33.9908 -7.6257 -1.8654 14.4588
 9.1454 -95.9505 33.9662 -7.6576 -1.7933 14.4001
 9.0763 -96.1417 33.9418 -7.6889 -1.7202 14.3368
 9.0058 -96.3336 33.9178 -7.7197 -1.6466 14.2689
 8.9341 -96.5264 33.8944 -7.7496 -1.5728 14.1964
 8.8614 -96.7200 33.8716 -7.7791 -1.4990 14.1191
 8.7876 -96.9145 33.8495 -7.8081 -1.4253 14.0373
 8.7128 -97.1099 33.8281 -7.8371 -1.3514 13.9514
 8.6370 -97.3060 33.8074 -7.8663 -1.2768 13.8617
 8.5602 -97.5026 33.7873 -7.8962 -1.2010 13.7687
 8.4825 -97.6996 33.7676 -7.9268 -1.1234 13.6728
 8.4039 -97.8967 33.7481 -7.9583 -1.0431 13.5747
 8.3243 -98.0936 33.7289 -7.9907 -0.9597 13.4748
 8.2439 -98.2899 33.7098 -8.0237 -0.8727 13.3735
 8.1627 -98.4855 33.6907 -8.0566 -0.7821 13.2712
 8.0808 -98.6801 33.6718 -8.0889 -0.6879 13.1684
 7.9985 -98.8733 33.6530 -8.1197 -0.5907 13.0652
 7.9160 -99.0649 33.6346 -8.1478 -0.4913 12.9621
 7.8335 -99.2548 33.6167 -8.1722 -0.3908 12.8595
 7.7513 -99.4428 33.5994 -8.1919 -0.2903 12.7577
 7.6696 -99.6287 33.5829 -8.2059 -0.1913 12.6571
 7.5887 -99.8125 33.5673 -8.2135 -0.0951 12.5582
 7.5087 -99.9943 33.5529 -8.2144 -0.0028 12.4614
 7.4297 -100.1740 33.5395 -8.2085 0.0845 12.3670
 7.3518 -100.3517 33.5272 -8.1963 0.1661 12.2753
 7.2748 -100.5275 33.5161 -8.1786 0.2418 12.1865
 7.1987 -100.7017 33.5060 -8.1566 0.3116 12.1005
 7.1232 -100.8744 33.4968 -8.1317 0.3758 12.0171
 7.0479 -101.0459 33.4884 -8.1058 0.4350 11.9360
 6.9726 -101.2163 33.4808 -8.0806 0.4901 11.8567
 6.8969 -101.3859 33.4739 -8.0581 0.5420 11.7784
 6.8205 -101.5548 33.4675 -8.0396 0.5916 11.7006
 6.7430 -101.7232 33.4617 -8.0267 0.6399 11.6224
 6.6642 -101.8910 33.4563 -8.0202 0.6873 11.5434
 6.5840 -102.0584 33.4512 -8.0206 0.7345 11.4629
 6.5023 -102.2251 33.4465 -8.0276 0.7816 11.3807
 6.4191 -102.3911 33.4419 -8.0406 0.8285 11.2965
 6.3344 -102.5560 33.4373 -8.0585 0.8750 11.2105
 6.2483 -102.7196 33.4324 -8.0798 0.9204 11.1228
 6.1612 -102.8817 33.4272 -8.1023 0.9642 11.0337
 6.0732 -103.0418 33.4213 -8.1242 1.0055 10.9438
 5.9845 -103.1998 33.4146 -8.1432 1.0434 10.8535
 5.8955 -103.3553 33.4066 -8.1574 1.0772 10.7634
 5.8062 -103.5082 33.3974 -8.1651 1.1063 10.6739
 5.7170 -103.6583 33.3867 -8.1648 1.1300 10.5854
 5.6279 -103.8057 33.3744 -8.1558 1.1481 10.4982
 5.5391 -103.9504 33.3607 -8.1377 1.1603 10.4128
 5.4506 -104.0925 33.3455 -8.1110 1.1669 10.3291
 5.3624 -104.2323 33.3291 -8.0762 1.1681 10.2474
 5.2744 -104.3699 33.3118 -8.0349 1.1644 10.1677
 5.1867 -104.5057 33.2938 -7.9887 1.1564 10.0900
 5.0991 -104.6401 33.2755 -7.9397 1.1449 10.0144
 5.0115 -104.7732 33.2574 -7.8899 1.1306 9.9408
 4.9238 -104.9054 33.2396 -7.8416 1.1143 9.8691
 4.8359 -105.0370 33.2227 -7.7969 1.0967 9.7995
 4.7479 -105.1682 33.2067 -7.7573 1.0785 9.7318
 4.6595 -105.2991 33.1920 -7.7245 1.0601 9.6659
 4.5709 -105.4298 33.1787 -7.6994 1.0418 9.6019
 4.4821 -105.5604 33.1668 -7.6825 1.0237 9.5396
 4.3930 -105.6908 33.1562 -7.6740 1.0057 9.4791
 4.3038 -105.8209 33.1469 -7.6736 0.9875 9.4203
 4.2145 -105.9507 33.1388 -7.6805 0.9688 9.3632
 4.1253 -106.0799 33.1318 -7.6938 0.9490 9.3078
 4.0362 -106.2083 33.1255 -7.7124 0.9275 9.2542
 3.9472 -106.3357 33.1199 -7.7350 0.9036 9.2023
 3.8584 -106.4620 33.1149 -7.7601 0.8767 9.1522
 3.7698 -106.5869 33.1102 -7.7867 0.8464 9.1038
 3.6813 -106.7103 33.1058 -7.8133 0.8123 9.0571
 3.5928 -106.8321 33.1017 -7.8390 0.7742 9.0119
 3.5043 -106.9522 33.0977 -7.8626 0.7321 8.9680
 3.4155 -107.0707 33.0940 -7.8835 0.6862 8.9249
 3.3264 -107.1876 33.0905 -7.9007 0.6370 8.8820
 3.2367 -107.3029 33.0872 -7.9138 0.5850 8.8389
 3.1464 -107.4169 33.0840 -7.9220 0.5312 8.7947
 3.0554 -107.5297 33.0811 -7.9250 0.4762 8.7489
 2.9635 -107.6415 33.0781 -7.9223 0.4211 8.7006
 2.8709 -107.7525 33.0751 -7.9137 0.3667 8.6494
 2.7774 -107.8628 33.0717 -7.8989 0.3140 8.5948
 2.6831 -107.9727 33.0678 -7.8777 0.2635 8.5366
 2.5881 -108.0823 33.0631 -7.8503 0.2159 8.4747
 2.4924 -108.1917 33.0572 -7.8166 0.1717 8.4094
 2.3961 -108.3010 33.0498 -7.7771 0.1311 8.3409
 2.2993 -108.4103 33.0406 -7.7320 0.0942 8.2698
 2.2019 -108.5196 33.0291 -7.6818 0.0612 8.1968
 2.1041 -108.6288 33.0152 -7.6273 0.0319 8.1224
 2.0058 -108.7379 32.9984 -7.5688 0.0064 8.0473
 1.9070 -108.8469 32.9787 -7.5072 -0.0154 7.9719
 1.8077 -108.9556 32.9557 -7.4430 -0.0336 7.8967
 1.7080 -109.0639 32.9295 -7.3766 -0.0480 7.8216
 1.6078 -109.1717 32.8998 -7.3084 -0.0587 7.7468
 1.5072 -109.2789 32.8667 -7.2387 -0.0656 7.6718
 1.4063 -109.3853 32.8302 -7.1674 -0.0685 7.5965
 1.3052 -109.4907 32.7903 -7.0944 -0.0674 7.5204
 1.2040 -109.5950 32.7470 -7.0194 -0.0623 7.4430
 1.1029 -109.6980 32.7003 -6.9420 -0.0533 7.3639
 1.0021 -109.7997 32.6505 -6.8618 -0.0407 7.2830
 0.9017 -109.9000 32.5974 -6.7782 -0.0248 7.2001
 0.8020 -109.9987 32.5413 -6.6909 -0.0060 7.1153
 0.7031 -110.0959 32.4821 -6.5995 0.0149 7.0289
 0.6050 -110.1916 32.4200 -6.5037 0.0375 6.9412
 0.5078 -110.2860 32.3553 -6.4037 0.0612 6.8529
 0.4116 -110.3790 32.2880 -6.2995 0.0853 6.7645
 0.3162 -110.4710 32.2184 -6.1917 0.1097 6.6765
 0.2218 -110.5621 32.1467 -6.0807 0.1341 6.5896
 0.1282 -110.6524 32.0734 -5.9672 0.1586 6.5039
 0.0352 -110.7423 31.9986 -5.8522 0.1834 6.4197
 -0.0571 -110.8317 31.9228 -5.7365 0.2091 6.3371
 -0.1487 -110.9208 31.8462 -5.6210 0.2365 6.2558
 -0.2398 -111.0098 31.7692 -5.5065 0.2664 6.1756
 -0.3304 -111.0986 31.6920 -5.3938 0.2998 6.0960
 -0.4203 -111.1872 31.6148 -5.2834 0.3375 6.0165
 -0.5095 -111.2755 31.5377 -5.1758 0.3805 5.9368
 -0.5979 -111.3636 31.4609 -5.0713 0.4294 5.8563
 -0.6855 -111.4513 31.3842 -4.9699 0.4846 5.7748
 -0.7720 -111.5386 31.3076 -4.8715 0.5465 5.6920
 -0.8575 -111.6253 31.2310 -4.7760 0.6150 5.6078
 -0.9417 -111.7116 31.1542 -4.6829 0.6897 5.5221
 -1.0248 -111.7975 31.0771 -4.5919 0.7703 5.4350
 -1.1067 -111.8829 30.9996 -4.5025 0.8560 5.3465
 -1.1873 -111.9680 30.9214 -4.4144 0.9460 5.2567
 -1.2668 -112.0528 30.8427 -4.3272 1.0393 5.1657
 -1.3452 -112.1375 30.7633 -4.2404 1.1352 5.0733
 -1.4226 -112.2222 30.6834 -4.1540 1.2325 4.9795
 -1.4990 -112.3068 30.6030 -4.0679 1.3303 4.8841
 -1.5745 -112.3914 30.5224 -3.9819 1.4276 4.7871
 -1.6490 -112.4760 30.4417 -3.8964 1.5235 4.6882
 -1.7224 -112.5604 30.3612 -3.8117 1.6170 4.5877
 -1.7948 -112.6446 30.2811 -3.7281 1.7071 4.4855
 -1.8658 -112.7284 30.2017 -3.6463 1.7930 4.3821
 -1.9354 -112.8117 30.1233 -3.5669 1.8738 4.2782
 -2.0033 -112.8944 30.0459 -3.4908 1.9487 4.1744
 -2.0694 -112.9765 29.9698 -3.4187 2.0170 4.0718
 -2.1334 -113.0577 29.8951 -3.3514 2.0782 3.9714
 -2.1952 -113.1381 29.8217 -3.2895 2.1321 3.8745
 -2.2547 -113.2176 29.7498 -3.2336 2.1787 3.7821
 -2.3118 -113.2962 29.6792 -3.1839 2.2184 3.6951
 -2.3667 -113.3740 29.6098 -3.1404 2.2517 3.6143
 -2.4194 -113.4509 29.5415 -3.1029 2.2795 3.5402
 -2.4700 -113.5268 29.4739 -3.0707 2.3028 3.4730
 -2.5188 -113.6018 29.4068 -3.0431 2.3227 3.4124
 -2.5658 -113.6757 29.3400 -3.0189 2.3405 3.3581
 -2.6113 -113.7483 29.2730 -2.9971 2.3571 3.3095
 -2.6553 -113.8197 29.2057 -2.9764 2.3733 3.2659
 -2.6978 -113.8895 29.1375 -2.9557 2.3896 3.2265
 -2.7388 -113.9577 29.0684 -2.9342 2.4063 3.1908
 -2.7782 -114.0243 28.9981 -2.9113 2.4231 3.1583
 -2.8158 -114.0891 28.9264 -2.8866 2.4396 3.1286
 -2.8514 -114.1522 28.8532 -2.8605 2.4554 3.1018
 -2.8848 -114.2137 28.7787 -2.8332 2.4697 3.0779
 -2.9159 -114.2736 28.7028 -2.8056 2.4820 3.0570
 -2.9446 -114.3322 28.6259 -2.7787 2.4921 3.0395
 -2.9710 -114.3897 28.5480 -2.7535 2.4998 3.0255
 -2.9952 -114.4463 28.4695 -2.7311 2.5056 3.0150
 -3.0176 -114.5021 28.3907 -2.7124 2.5101 3.0077
 -3.0385 -114.5573 28.3117 -2.6981 2.5143 3.0034
 -3.0584 -114.6122 28.2329 -2.6887 2.5193 3.0013
 -3.0778 -114.6667 28.1543 -2.6843 2.5261 3.0004
 -3.0971 -114.7209 28.0762 -2.6850 2.5355 3.0001
 -3.1166 -114.7750 27.9984 -2.6903 2.5481 2.9994
 -3.1368 -114.8289 27.9209 -2.6999 2.5637 2.9975
 -3.1575 -114.8826 27.8437 -2.7133 2.5816 2.9940
 -3.1789 -114.9362 27.7664 -2.7301 2.6007 2.9886
 -3.2007 -114.9896 27.6889 -2.7498 2.6192 2.9814
 -3.2226 -115.0429 27.6109 -2.7723 2.6351 2.9730
 -3.2444 -115.0961 27.5322 -2.7971 2.6465 2.9641
